<svg width="250" height="250" viewBox="0 0 250 250" fill="none" xmlns="http://www.w3.org/2000/svg">
<path d="M48.5 79.065C40.615 89.665 35.545 105.24 39.39 118.285C45.96 140.58 73.84 142.26 92.935 144.84C106.095 146.62 119.18 156.965 130.435 163.385C145.435 171.945 169.565 185.45 186.865 176.68C201.205 169.415 208.915 151.84 213.315 137.26C220.21 114.43 220.875 86.89 205.865 67C185.435 40 149.695 44.5 120 49.12C100.125 52.215 80.805 55.23 63.135 65.765C57.43 69.1935 52.4569 73.713 48.5 79.065Z" fill="#2E8BDF"/>
<path opacity="0.4" d="M48.5 79.065C40.615 89.665 35.545 105.24 39.39 118.285C45.96 140.58 73.84 142.26 92.935 144.84C106.095 146.62 119.18 156.965 130.435 163.385C145.435 171.945 169.565 185.45 186.865 176.68C201.205 169.415 208.915 151.84 213.315 137.26C220.21 114.43 220.875 86.89 205.865 67C185.435 40 149.695 44.5 120 49.12C100.125 52.215 80.805 55.23 63.135 65.765C57.43 69.1935 52.4569 73.713 48.5 79.065Z" fill="white"/>
<path d="M138.98 46.7H48.405V161.59H138.98V46.7Z" fill="white" stroke="#263238" stroke-width="0.75" stroke-linecap="round" stroke-linejoin="round"/>
<path d="M138.98 46.7H48.405V53.555H138.98V46.7Z" fill="#263238" stroke="#263238" stroke-width="0.75" stroke-linecap="round" stroke-linejoin="round"/>
<path d="M66.295 126.83H50.985V159.325H66.295V126.83Z" fill="#2E8BDF"/>
<path opacity="0.6" d="M66.295 126.83H50.985V159.325H66.295V126.83Z" fill="white"/>
<path d="M82.9901 126.83H67.6801V159.325H82.9901V126.83Z" fill="#2E8BDF"/>
<path opacity="0.6" d="M82.9901 126.83H67.6801V159.325H82.9901V126.83Z" fill="white"/>
<path d="M100.73 126.83H85.42V159.325H100.73V126.83Z" fill="#2E8BDF"/>
<path opacity="0.6" d="M100.73 126.83H85.42V159.325H100.73V126.83Z" fill="white"/>
<path d="M118.465 126.83H103.155V159.325H118.465V126.83Z" fill="#2E8BDF"/>
<path opacity="0.6" d="M118.465 126.83H103.155V159.325H118.465V126.83Z" fill="white"/>
<path d="M136.635 126.83H121.325V159.325H136.635V126.83Z" fill="white" stroke="#263238" stroke-width="0.75" stroke-linecap="round" stroke-linejoin="round"/>
<path d="M136.39 49.4099H50.9901V57.2849H136.39V49.4099Z" fill="#2E8BDF"/>
<path opacity="0.6" d="M136.39 49.4099H50.9901V57.2849H136.39V49.4099Z" fill="white"/>
<path d="M135.19 50.9399H52.525V54.4249H135.19V50.9399Z" fill="white"/>
<path d="M135.185 50.9399H125.825V54.4249H135.185V50.9399Z" fill="#263238" stroke="#263238" stroke-width="0.75" stroke-linecap="round" stroke-linejoin="round"/>
<path d="M89 78.465H52.68C52.5117 78.4505 52.3549 78.3733 52.2407 78.2488C52.1264 78.1243 52.063 77.9615 52.063 77.7925C52.063 77.6235 52.1264 77.4607 52.2407 77.3362C52.3549 77.2117 52.5117 77.1345 52.68 77.12H89C89.1684 77.1345 89.3251 77.2117 89.4394 77.3362C89.5536 77.4607 89.617 77.6235 89.617 77.7925C89.617 77.9615 89.5536 78.1243 89.4394 78.2488C89.3251 78.3733 89.1684 78.4505 89 78.465Z" fill="#263238"/>
<path d="M89 83.175H52.68C52.501 83.175 52.3293 83.1038 52.2027 82.9772C52.0761 82.8507 52.005 82.679 52.005 82.5C52.005 82.3209 52.0761 82.1492 52.2027 82.0227C52.3293 81.8961 52.501 81.825 52.68 81.825H89C89.179 81.825 89.3507 81.8961 89.4773 82.0227C89.6039 82.1492 89.675 82.3209 89.675 82.5C89.675 82.679 89.6039 82.8507 89.4773 82.9772C89.3507 83.1038 89.179 83.175 89 83.175Z" fill="#263238"/>
<path d="M89 87.8849H52.68C52.501 87.8849 52.3293 87.8138 52.2027 87.6872C52.0761 87.5606 52.005 87.3889 52.005 87.2099C52.005 87.0309 52.0761 86.8592 52.2027 86.7326C52.3293 86.606 52.501 86.5349 52.68 86.5349H89C89.179 86.5349 89.3507 86.606 89.4773 86.7326C89.6039 86.8592 89.675 87.0309 89.675 87.2099C89.675 87.3889 89.6039 87.5606 89.4773 87.6872C89.3507 87.8138 89.179 87.8849 89 87.8849Z" fill="#263238"/>
<path d="M89 92.59H52.68C52.5117 92.5755 52.3549 92.4983 52.2407 92.3738C52.1264 92.2493 52.063 92.0865 52.063 91.9175C52.063 91.7485 52.1264 91.5857 52.2407 91.4612C52.3549 91.3367 52.5117 91.2595 52.68 91.245H89C89.1684 91.2595 89.3251 91.3367 89.4394 91.4612C89.5536 91.5857 89.617 91.7485 89.617 91.9175C89.617 92.0865 89.5536 92.2493 89.4394 92.3738C89.3251 92.4983 89.1684 92.5755 89 92.59Z" fill="#263238"/>
<path d="M89 96.7749H52.68C52.5117 96.7604 52.3549 96.6833 52.2407 96.5587C52.1264 96.4342 52.063 96.2714 52.063 96.1024C52.063 95.9335 52.1264 95.7706 52.2407 95.6461C52.3549 95.5216 52.5117 95.4445 52.68 95.4299H89C89.1684 95.4445 89.3251 95.5216 89.4394 95.6461C89.5536 95.7706 89.617 95.9335 89.617 96.1024C89.617 96.2714 89.5536 96.4342 89.4394 96.5587C89.3251 96.6833 89.1684 96.7604 89 96.7749Z" fill="#263238"/>
<path d="M89 101.5H52.68C52.501 101.5 52.3293 101.429 52.2027 101.302C52.0761 101.176 52.005 101.004 52.005 100.825C52.005 100.646 52.0761 100.474 52.2027 100.348C52.3293 100.221 52.501 100.15 52.68 100.15H89C89.179 100.15 89.3507 100.221 89.4773 100.348C89.6039 100.474 89.675 100.646 89.675 100.825C89.675 101.004 89.6039 101.176 89.4773 101.302C89.3507 101.429 89.179 101.5 89 101.5Z" fill="#263238"/>
<path d="M89 106.19H52.68C52.5117 106.175 52.3549 106.098 52.2407 105.974C52.1264 105.849 52.063 105.686 52.063 105.517C52.063 105.348 52.1264 105.186 52.2407 105.061C52.3549 104.937 52.5117 104.86 52.68 104.845H89C89.1684 104.86 89.3251 104.937 89.4394 105.061C89.5536 105.186 89.617 105.348 89.617 105.517C89.617 105.686 89.5536 105.849 89.4394 105.974C89.3251 106.098 89.1684 106.175 89 106.19Z" fill="#263238"/>
<path d="M89 110.9H52.68C52.501 110.9 52.3293 110.829 52.2027 110.702C52.0761 110.576 52.005 110.404 52.005 110.225C52.005 110.046 52.0761 109.874 52.2027 109.748C52.3293 109.621 52.501 109.55 52.68 109.55H89C89.179 109.55 89.3507 109.621 89.4773 109.748C89.6039 109.874 89.675 110.046 89.675 110.225C89.675 110.404 89.6039 110.576 89.4773 110.702C89.3507 110.829 89.179 110.9 89 110.9Z" fill="#263238"/>
<path d="M89 115.605H52.68C52.5117 115.59 52.3549 115.513 52.2407 115.389C52.1264 115.264 52.063 115.101 52.063 114.933C52.063 114.764 52.1264 114.601 52.2407 114.476C52.3549 114.352 52.5117 114.275 52.68 114.26H89C89.1684 114.275 89.3251 114.352 89.4394 114.476C89.5536 114.601 89.617 114.764 89.617 114.933C89.617 115.101 89.5536 115.264 89.4394 115.389C89.3251 115.513 89.1684 115.59 89 115.605Z" fill="#263238"/>
<path d="M89 120.315H52.68C52.5117 120.3 52.3549 120.223 52.2407 120.099C52.1264 119.974 52.063 119.811 52.063 119.642C52.063 119.473 52.1264 119.311 52.2407 119.186C52.3549 119.062 52.5117 118.985 52.68 118.97H89C89.1684 118.985 89.3251 119.062 89.4394 119.186C89.5536 119.311 89.617 119.473 89.617 119.642C89.617 119.811 89.5536 119.974 89.4394 120.099C89.3251 120.223 89.1684 120.3 89 120.315Z" fill="#263238"/>
<path d="M135.75 64.345H99.445C99.266 64.345 99.0943 64.2739 98.9677 64.1473C98.8411 64.0207 98.77 63.849 98.77 63.67C98.77 63.491 98.8411 63.3193 98.9677 63.1927C99.0943 63.0661 99.266 62.995 99.445 62.995H135.75C135.929 62.995 136.101 63.0661 136.227 63.1927C136.354 63.3193 136.425 63.491 136.425 63.67C136.425 63.849 136.354 64.0207 136.227 64.1473C136.101 64.2739 135.929 64.345 135.75 64.345Z" fill="#263238"/>
<path d="M135.75 69.0499H99.445C99.3518 69.0579 99.258 69.0465 99.1694 69.0164C99.0809 68.9862 98.9996 68.938 98.9307 68.8748C98.8617 68.8116 98.8067 68.7347 98.7691 68.6491C98.7314 68.5634 98.712 68.4709 98.712 68.3774C98.712 68.2839 98.7314 68.1913 98.7691 68.1057C98.8067 68.0201 98.8617 67.9432 98.9307 67.88C98.9996 67.8168 99.0809 67.7685 99.1694 67.7384C99.258 67.7083 99.3518 67.6969 99.445 67.7049H135.75C135.843 67.6969 135.937 67.7083 136.026 67.7384C136.114 67.7685 136.195 67.8168 136.264 67.88C136.333 67.9432 136.388 68.0201 136.426 68.1057C136.464 68.1913 136.483 68.2839 136.483 68.3774C136.483 68.4709 136.464 68.5634 136.426 68.6491C136.388 68.7347 136.333 68.8116 136.264 68.8748C136.195 68.938 136.114 68.9862 136.026 69.0164C135.937 69.0465 135.843 69.0579 135.75 69.0499Z" fill="#263238"/>
<path d="M135.75 73.7599H99.445C99.266 73.7599 99.0943 73.6888 98.9677 73.5622C98.8411 73.4356 98.77 73.2639 98.77 73.0849C98.77 72.9059 98.8411 72.7342 98.9677 72.6076C99.0943 72.481 99.266 72.4099 99.445 72.4099H135.75C135.929 72.4099 136.101 72.481 136.227 72.6076C136.354 72.7342 136.425 72.9059 136.425 73.0849C136.425 73.2639 136.354 73.4356 136.227 73.5622C136.101 73.6888 135.929 73.7599 135.75 73.7599Z" fill="#263238"/>
<path d="M135.75 78.4649H99.445C99.3518 78.473 99.258 78.4616 99.1694 78.4314C99.0809 78.4013 98.9996 78.3531 98.9307 78.2898C98.8617 78.2266 98.8067 78.1497 98.7691 78.0641C98.7314 77.9785 98.712 77.886 98.712 77.7924C98.712 77.6989 98.7314 77.6064 98.7691 77.5208C98.8067 77.4351 98.8617 77.3583 98.9307 77.295C98.9996 77.2318 99.0809 77.1836 99.1694 77.1534C99.258 77.1233 99.3518 77.1119 99.445 77.1199H135.75C135.843 77.1119 135.937 77.1233 136.026 77.1534C136.114 77.1836 136.195 77.2318 136.264 77.295C136.333 77.3583 136.388 77.4351 136.426 77.5208C136.464 77.6064 136.483 77.6989 136.483 77.7924C136.483 77.886 136.464 77.9785 136.426 78.0641C136.388 78.1497 136.333 78.2266 136.264 78.2898C136.195 78.3531 136.114 78.4013 136.026 78.4314C135.937 78.4616 135.843 78.473 135.75 78.4649Z" fill="#263238"/>
<path d="M135.75 83.175H99.445C99.266 83.175 99.0943 83.1038 98.9677 82.9772C98.8411 82.8507 98.77 82.679 98.77 82.5C98.77 82.3209 98.8411 82.1492 98.9677 82.0227C99.0943 81.8961 99.266 81.825 99.445 81.825H135.75C135.929 81.825 136.101 81.8961 136.227 82.0227C136.354 82.1492 136.425 82.3209 136.425 82.5C136.425 82.679 136.354 82.8507 136.227 82.9772C136.101 83.1038 135.929 83.175 135.75 83.175Z" fill="#263238"/>
<path d="M135.75 87.8849H99.445C99.3564 87.8849 99.2686 87.8674 99.1867 87.8335C99.1048 87.7996 99.0304 87.7499 98.9677 87.6872C98.905 87.6245 98.8553 87.5501 98.8214 87.4682C98.7875 87.3863 98.77 87.2985 98.77 87.2099C98.77 87.1213 98.7875 87.0335 98.8214 86.9516C98.8553 86.8697 98.905 86.7953 98.9677 86.7326C99.0304 86.6699 99.1048 86.6202 99.1867 86.5863C99.2686 86.5524 99.3564 86.5349 99.445 86.5349H135.75C135.839 86.5349 135.926 86.5524 136.008 86.5863C136.09 86.6202 136.165 86.6699 136.227 86.7326C136.29 86.7953 136.34 86.8697 136.374 86.9516C136.408 87.0335 136.425 87.1213 136.425 87.2099C136.425 87.2985 136.408 87.3863 136.374 87.4682C136.34 87.5501 136.29 87.6245 136.227 87.6872C136.165 87.7499 136.09 87.7996 136.008 87.8335C135.926 87.8674 135.839 87.8849 135.75 87.8849Z" fill="#263238"/>
<path d="M135.75 92.5899H99.445C99.3518 92.598 99.258 92.5866 99.1694 92.5564C99.0809 92.5263 98.9996 92.4781 98.9307 92.4148C98.8617 92.3516 98.8067 92.2747 98.7691 92.1891C98.7314 92.1035 98.712 92.011 98.712 91.9174C98.712 91.8239 98.7314 91.7314 98.7691 91.6458C98.8067 91.5601 98.8617 91.4833 98.9307 91.42C98.9996 91.3568 99.0809 91.3086 99.1694 91.2784C99.258 91.2483 99.3518 91.2369 99.445 91.2449H135.75C135.843 91.2369 135.937 91.2483 136.026 91.2784C136.114 91.3086 136.195 91.3568 136.264 91.42C136.333 91.4833 136.388 91.5601 136.426 91.6458C136.464 91.7314 136.483 91.8239 136.483 91.9174C136.483 92.011 136.464 92.1035 136.426 92.1891C136.388 92.2747 136.333 92.3516 136.264 92.4148C136.195 92.4781 136.114 92.5263 136.026 92.5564C135.937 92.5866 135.843 92.598 135.75 92.5899Z" fill="#263238"/>
<path d="M136.405 95.755H99.405V121.56H136.405V95.755Z" fill="#2E8BDF"/>
<path opacity="0.6" d="M136.405 95.755H99.405V121.56H136.405V95.755Z" fill="white"/>
<path d="M149.335 60.2H111.625V161.355H149.335V60.2Z" fill="#2E8BDF"/>
<path opacity="0.4" d="M149.335 60.2H111.625V161.355H149.335V60.2Z" fill="white"/>
<path d="M205.02 56.4149H114.445V171.305H205.02V56.4149Z" fill="white" stroke="#263238" stroke-width="0.75" stroke-linecap="round" stroke-linejoin="round"/>
<path d="M205.02 56.4149H114.445V63.2699H205.02V56.4149Z" fill="#263238" stroke="#263238" stroke-width="0.75" stroke-linecap="round" stroke-linejoin="round"/>
<path d="M176.76 72.6849H144.955V132.14H176.76V72.6849Z" fill="#2E8BDF"/>
<path opacity="0.6" d="M176.76 72.6849H144.955V132.14H176.76V72.6849Z" fill="white"/>
<path d="M202.435 136.54H117.035V169.035H202.435V136.54Z" fill="#2E8BDF"/>
<path opacity="0.6" d="M202.435 136.54H117.035V169.035H202.435V136.54Z" fill="white"/>
<path d="M202.435 59.125H117.035V67H202.435V59.125Z" fill="#2E8BDF"/>
<path opacity="0.6" d="M202.435 59.125H117.035V67H202.435V59.125Z" fill="white"/>
<path d="M201.235 60.6549H118.57V64.1399H201.235V60.6549Z" fill="white"/>
<path d="M201.23 60.6549H191.87V64.1399H201.23V60.6549Z" fill="#263238" stroke="#263238" stroke-width="0.75" stroke-linecap="round" stroke-linejoin="round"/>
<path d="M139.61 74.0549H117.815C117.722 74.0629 117.628 74.0515 117.539 74.0214C117.451 73.9912 117.37 73.943 117.301 73.8798C117.232 73.8166 117.177 73.7397 117.139 73.6541C117.101 73.5684 117.082 73.4759 117.082 73.3824C117.082 73.2889 117.101 73.1963 117.139 73.1107C117.177 73.0251 117.232 72.9482 117.301 72.885C117.37 72.8218 117.451 72.7736 117.539 72.7434C117.628 72.7133 117.722 72.7019 117.815 72.7099H139.61C139.703 72.7019 139.797 72.7133 139.886 72.7434C139.974 72.7736 140.055 72.8218 140.124 72.885C140.193 72.9482 140.248 73.0251 140.286 73.1107C140.324 73.1963 140.343 73.2889 140.343 73.3824C140.343 73.4759 140.324 73.5684 140.286 73.6541C140.248 73.7397 140.193 73.8166 140.124 73.8798C140.055 73.943 139.974 73.9912 139.886 74.0214C139.797 74.0515 139.703 74.0629 139.61 74.0549Z" fill="#263238"/>
<path d="M139.61 78.7649H117.815C117.636 78.7649 117.464 78.6938 117.338 78.5672C117.211 78.4406 117.14 78.2689 117.14 78.0899C117.14 77.9109 117.211 77.7392 117.338 77.6126C117.464 77.486 117.636 77.4149 117.815 77.4149H139.61C139.789 77.4149 139.961 77.486 140.087 77.6126C140.214 77.7392 140.285 77.9109 140.285 78.0899C140.285 78.2689 140.214 78.4406 140.087 78.5672C139.961 78.6938 139.789 78.7649 139.61 78.7649Z" fill="#263238"/>
<path d="M139.61 83.4699H117.815C117.722 83.478 117.628 83.4666 117.539 83.4364C117.451 83.4063 117.37 83.3581 117.301 83.2948C117.232 83.2316 117.177 83.1547 117.139 83.0691C117.101 82.9835 117.082 82.891 117.082 82.7974C117.082 82.7039 117.101 82.6114 117.139 82.5258C117.177 82.4401 117.232 82.3633 117.301 82.3C117.37 82.2368 117.451 82.1886 117.539 82.1585C117.628 82.1283 117.722 82.1169 117.815 82.1249H139.61C139.703 82.1169 139.797 82.1283 139.886 82.1585C139.974 82.1886 140.055 82.2368 140.124 82.3C140.193 82.3633 140.248 82.4401 140.286 82.5258C140.324 82.6114 140.343 82.7039 140.343 82.7974C140.343 82.891 140.324 82.9835 140.286 83.0691C140.248 83.1547 140.193 83.2316 140.124 83.2948C140.055 83.3581 139.974 83.4063 139.886 83.4364C139.797 83.4666 139.703 83.478 139.61 83.4699Z" fill="#263238"/>
<path d="M139.61 88.18H117.815C117.726 88.18 117.639 88.1625 117.557 88.1286C117.475 88.0946 117.4 88.0449 117.338 87.9823C117.275 87.9196 117.225 87.8452 117.191 87.7633C117.157 87.6814 117.14 87.5936 117.14 87.505C117.14 87.4163 117.157 87.3285 117.191 87.2466C117.225 87.1647 117.275 87.0903 117.338 87.0277C117.4 86.965 117.475 86.9153 117.557 86.8813C117.639 86.8474 117.726 86.83 117.815 86.83H139.61C139.789 86.83 139.961 86.9011 140.087 87.0277C140.214 87.1542 140.285 87.3259 140.285 87.505C140.285 87.684 140.214 87.8557 140.087 87.9823C139.961 88.1088 139.789 88.18 139.61 88.18Z" fill="#263238"/>
<path d="M139.61 92.885H117.815C117.722 92.893 117.628 92.8816 117.539 92.8515C117.451 92.8213 117.37 92.7731 117.301 92.7099C117.232 92.6466 117.177 92.5698 117.139 92.4841C117.101 92.3985 117.082 92.306 117.082 92.2125C117.082 92.1189 117.101 92.0264 117.139 91.9408C117.177 91.8552 117.232 91.7783 117.301 91.7151C117.37 91.6518 117.451 91.6036 117.539 91.5735C117.628 91.5433 117.722 91.5319 117.815 91.54H139.61C139.703 91.5319 139.797 91.5433 139.886 91.5735C139.974 91.6036 140.055 91.6518 140.124 91.7151C140.193 91.7783 140.248 91.8552 140.286 91.9408C140.324 92.0264 140.343 92.1189 140.343 92.2125C140.343 92.306 140.324 92.3985 140.286 92.4841C140.248 92.5698 140.193 92.6466 140.124 92.7099C140.055 92.7731 139.974 92.8213 139.886 92.8515C139.797 92.8816 139.703 92.893 139.61 92.885Z" fill="#263238"/>
<path d="M139.61 97.5949H117.815C117.722 97.603 117.628 97.5916 117.539 97.5614C117.451 97.5313 117.37 97.4831 117.301 97.4198C117.232 97.3566 117.177 97.2797 117.139 97.1941C117.101 97.1085 117.082 97.016 117.082 96.9224C117.082 96.8289 117.101 96.7364 117.139 96.6508C117.177 96.5651 117.232 96.4883 117.301 96.425C117.37 96.3618 117.451 96.3136 117.539 96.2835C117.628 96.2533 117.722 96.2419 117.815 96.2499H139.61C139.703 96.2419 139.797 96.2533 139.886 96.2835C139.974 96.3136 140.055 96.3618 140.124 96.425C140.193 96.4883 140.248 96.5651 140.286 96.6508C140.324 96.7364 140.343 96.8289 140.343 96.9224C140.343 97.016 140.324 97.1085 140.286 97.1941C140.248 97.2797 140.193 97.3566 140.124 97.4198C140.055 97.4831 139.974 97.5313 139.886 97.5614C139.797 97.5916 139.703 97.603 139.61 97.5949Z" fill="#263238"/>
<path d="M139.61 102.305H117.815C117.726 102.305 117.639 102.287 117.557 102.254C117.475 102.22 117.4 102.17 117.338 102.107C117.275 102.045 117.225 101.97 117.191 101.888C117.157 101.806 117.14 101.719 117.14 101.63C117.14 101.541 117.157 101.454 117.191 101.372C117.225 101.29 117.275 101.215 117.338 101.153C117.4 101.09 117.475 101.04 117.557 101.006C117.639 100.972 117.726 100.955 117.815 100.955H139.61C139.789 100.955 139.961 101.026 140.087 101.153C140.214 101.279 140.285 101.451 140.285 101.63C140.285 101.809 140.214 101.981 140.087 102.107C139.961 102.234 139.789 102.305 139.61 102.305Z" fill="#263238"/>
<path d="M139.61 106.5H117.815C117.636 106.5 117.464 106.429 117.338 106.302C117.211 106.176 117.14 106.004 117.14 105.825C117.14 105.646 117.211 105.474 117.338 105.348C117.464 105.221 117.636 105.15 117.815 105.15H139.61C139.789 105.15 139.961 105.221 140.087 105.348C140.214 105.474 140.285 105.646 140.285 105.825C140.285 106.004 140.214 106.176 140.087 106.302C139.961 106.429 139.789 106.5 139.61 106.5Z" fill="#263238"/>
<path d="M139.61 111.195H117.815C117.722 111.203 117.628 111.192 117.539 111.161C117.451 111.131 117.37 111.083 117.301 111.02C117.232 110.957 117.177 110.88 117.139 110.794C117.101 110.708 117.082 110.616 117.082 110.522C117.082 110.429 117.101 110.336 117.139 110.251C117.177 110.165 117.232 110.088 117.301 110.025C117.37 109.962 117.451 109.914 117.539 109.883C117.628 109.853 117.722 109.842 117.815 109.85H139.61C139.703 109.842 139.797 109.853 139.886 109.883C139.974 109.914 140.055 109.962 140.124 110.025C140.193 110.088 140.248 110.165 140.286 110.251C140.324 110.336 140.343 110.429 140.343 110.522C140.343 110.616 140.324 110.708 140.286 110.794C140.248 110.88 140.193 110.957 140.124 111.02C140.055 111.083 139.974 111.131 139.886 111.161C139.797 111.192 139.703 111.203 139.61 111.195Z" fill="#263238"/>
<path d="M139.61 115.905H117.815C117.636 115.905 117.464 115.834 117.338 115.707C117.211 115.581 117.14 115.409 117.14 115.23C117.14 115.051 117.211 114.879 117.338 114.753C117.464 114.626 117.636 114.555 117.815 114.555H139.61C139.789 114.555 139.961 114.626 140.087 114.753C140.214 114.879 140.285 115.051 140.285 115.23C140.285 115.409 140.214 115.581 140.087 115.707C139.961 115.834 139.789 115.905 139.61 115.905Z" fill="#263238"/>
<path d="M139.61 120.61H117.815C117.722 120.618 117.628 120.607 117.539 120.576C117.451 120.546 117.37 120.498 117.301 120.435C117.232 120.372 117.177 120.295 117.139 120.209C117.101 120.124 117.082 120.031 117.082 119.937C117.082 119.844 117.101 119.751 117.139 119.666C117.177 119.58 117.232 119.503 117.301 119.44C117.37 119.377 117.451 119.329 117.539 119.298C117.628 119.268 117.722 119.257 117.815 119.265H139.61C139.703 119.257 139.797 119.268 139.886 119.298C139.974 119.329 140.055 119.377 140.124 119.44C140.193 119.503 140.248 119.58 140.286 119.666C140.324 119.751 140.343 119.844 140.343 119.937C140.343 120.031 140.324 120.124 140.286 120.209C140.248 120.295 140.193 120.372 140.124 120.435C140.055 120.498 139.974 120.546 139.886 120.576C139.797 120.607 139.703 120.618 139.61 120.61Z" fill="#263238"/>
<path d="M139.61 125.32H117.815C117.636 125.32 117.464 125.249 117.338 125.122C117.211 124.996 117.14 124.824 117.14 124.645C117.14 124.466 117.211 124.294 117.338 124.168C117.464 124.041 117.636 123.97 117.815 123.97H139.61C139.789 123.97 139.961 124.041 140.087 124.168C140.214 124.294 140.285 124.466 140.285 124.645C140.285 124.824 140.214 124.996 140.087 125.122C139.961 125.249 139.789 125.32 139.61 125.32Z" fill="#263238"/>
<path d="M139.61 130.025H117.815C117.722 130.033 117.628 130.022 117.539 129.991C117.451 129.961 117.37 129.913 117.301 129.85C117.232 129.787 117.177 129.71 117.139 129.624C117.101 129.539 117.082 129.446 117.082 129.352C117.082 129.259 117.101 129.166 117.139 129.081C117.177 128.995 117.232 128.918 117.301 128.855C117.37 128.792 117.451 128.744 117.539 128.714C117.628 128.683 117.722 128.672 117.815 128.68H139.61C139.703 128.672 139.797 128.683 139.886 128.714C139.974 128.744 140.055 128.792 140.124 128.855C140.193 128.918 140.248 128.995 140.286 129.081C140.324 129.166 140.343 129.259 140.343 129.352C140.343 129.446 140.324 129.539 140.286 129.624C140.248 129.71 140.193 129.787 140.124 129.85C140.055 129.913 139.974 129.961 139.886 129.991C139.797 130.022 139.703 130.033 139.61 130.025Z" fill="#263238"/>
<path d="M139.61 134.735H117.815C117.722 134.743 117.628 134.732 117.539 134.701C117.451 134.671 117.37 134.623 117.301 134.56C117.232 134.497 117.177 134.42 117.139 134.334C117.101 134.248 117.082 134.156 117.082 134.062C117.082 133.969 117.101 133.876 117.139 133.791C117.177 133.705 117.232 133.628 117.301 133.565C117.37 133.502 117.451 133.454 117.539 133.423C117.628 133.393 117.722 133.382 117.815 133.39H139.61C139.703 133.382 139.797 133.393 139.886 133.423C139.974 133.454 140.055 133.502 140.124 133.565C140.193 133.628 140.248 133.705 140.286 133.791C140.324 133.876 140.343 133.969 140.343 134.062C140.343 134.156 140.324 134.248 140.286 134.334C140.248 134.42 140.193 134.497 140.124 134.56C140.055 134.623 139.974 134.671 139.886 134.701C139.797 134.732 139.703 134.743 139.61 134.735Z" fill="#263238"/>
<path d="M202.27 74.0549H180.5C180.407 74.0629 180.313 74.0515 180.224 74.0214C180.136 73.9912 180.055 73.943 179.986 73.8798C179.917 73.8166 179.862 73.7397 179.824 73.6541C179.786 73.5684 179.767 73.4759 179.767 73.3824C179.767 73.2889 179.786 73.1963 179.824 73.1107C179.862 73.0251 179.917 72.9482 179.986 72.885C180.055 72.8218 180.136 72.7736 180.224 72.7434C180.313 72.7133 180.407 72.7019 180.5 72.7099H202.295C202.388 72.7019 202.482 72.7133 202.571 72.7434C202.659 72.7736 202.74 72.8218 202.809 72.885C202.878 72.9482 202.933 73.0251 202.971 73.1107C203.009 73.1963 203.028 73.2889 203.028 73.3824C203.028 73.4759 203.009 73.5684 202.971 73.6541C202.933 73.7397 202.878 73.8166 202.809 73.8798C202.74 73.943 202.659 73.9912 202.571 74.0214C202.482 74.0515 202.388 74.0629 202.295 74.0549H202.27Z" fill="#263238"/>
<path d="M202.27 78.7649H180.5C180.411 78.7649 180.324 78.7475 180.242 78.7135C180.16 78.6796 180.085 78.6299 180.023 78.5672C179.96 78.5045 179.91 78.4301 179.876 78.3482C179.843 78.2663 179.825 78.1786 179.825 78.0899C179.825 78.0013 179.843 77.9135 179.876 77.8316C179.91 77.7497 179.96 77.6753 180.023 77.6126C180.085 77.5499 180.16 77.5002 180.242 77.4663C180.324 77.4324 180.411 77.4149 180.5 77.4149H202.295C202.474 77.4149 202.646 77.486 202.772 77.6126C202.899 77.7392 202.97 77.9109 202.97 78.0899C202.97 78.2689 202.899 78.4406 202.772 78.5672C202.646 78.6938 202.474 78.7649 202.295 78.7649H202.27Z" fill="#263238"/>
<path d="M202.27 83.4699H180.5C180.407 83.478 180.313 83.4666 180.224 83.4364C180.136 83.4063 180.055 83.3581 179.986 83.2948C179.917 83.2316 179.862 83.1547 179.824 83.0691C179.786 82.9835 179.767 82.891 179.767 82.7974C179.767 82.7039 179.786 82.6114 179.824 82.5258C179.862 82.4401 179.917 82.3633 179.986 82.3C180.055 82.2368 180.136 82.1886 180.224 82.1585C180.313 82.1283 180.407 82.1169 180.5 82.1249H202.295C202.388 82.1169 202.482 82.1283 202.571 82.1585C202.659 82.1886 202.74 82.2368 202.809 82.3C202.878 82.3633 202.933 82.4401 202.971 82.5258C203.009 82.6114 203.028 82.7039 203.028 82.7974C203.028 82.891 203.009 82.9835 202.971 83.0691C202.933 83.1547 202.878 83.2316 202.809 83.2948C202.74 83.3581 202.659 83.4063 202.571 83.4364C202.482 83.4666 202.388 83.478 202.295 83.4699H202.27Z" fill="#263238"/>
<path d="M202.27 88.18H180.5C180.411 88.18 180.324 88.1625 180.242 88.1286C180.16 88.0946 180.085 88.0449 180.023 87.9823C179.96 87.9196 179.91 87.8452 179.876 87.7633C179.843 87.6814 179.825 87.5936 179.825 87.505C179.825 87.4163 179.843 87.3285 179.876 87.2466C179.91 87.1647 179.96 87.0903 180.023 87.0277C180.085 86.965 180.16 86.9153 180.242 86.8813C180.324 86.8474 180.411 86.83 180.5 86.83H202.295C202.474 86.83 202.646 86.9011 202.772 87.0277C202.899 87.1542 202.97 87.3259 202.97 87.505C202.97 87.684 202.899 87.8557 202.772 87.9823C202.646 88.1088 202.474 88.18 202.295 88.18H202.27Z" fill="#263238"/>
<path d="M202.27 92.885H180.5C180.407 92.893 180.313 92.8816 180.224 92.8515C180.136 92.8213 180.055 92.7731 179.986 92.7099C179.917 92.6466 179.862 92.5698 179.824 92.4841C179.786 92.3985 179.767 92.306 179.767 92.2125C179.767 92.1189 179.786 92.0264 179.824 91.9408C179.862 91.8552 179.917 91.7783 179.986 91.7151C180.055 91.6518 180.136 91.6036 180.224 91.5735C180.313 91.5433 180.407 91.5319 180.5 91.54H202.295C202.388 91.5319 202.482 91.5433 202.571 91.5735C202.659 91.6036 202.74 91.6518 202.809 91.7151C202.878 91.7783 202.933 91.8552 202.971 91.9408C203.009 92.0264 203.028 92.1189 203.028 92.2125C203.028 92.306 203.009 92.3985 202.971 92.4841C202.933 92.5698 202.878 92.6466 202.809 92.7099C202.74 92.7731 202.659 92.8213 202.571 92.8515C202.482 92.8816 202.388 92.893 202.295 92.885H202.27Z" fill="#263238"/>
<path d="M202.27 97.5949H180.5C180.407 97.603 180.313 97.5916 180.224 97.5614C180.136 97.5313 180.055 97.4831 179.986 97.4198C179.917 97.3566 179.862 97.2797 179.824 97.1941C179.786 97.1085 179.767 97.016 179.767 96.9224C179.767 96.8289 179.786 96.7364 179.824 96.6508C179.862 96.5651 179.917 96.4883 179.986 96.425C180.055 96.3618 180.136 96.3136 180.224 96.2835C180.313 96.2533 180.407 96.2419 180.5 96.2499H202.295C202.388 96.2419 202.482 96.2533 202.571 96.2835C202.659 96.3136 202.74 96.3618 202.809 96.425C202.878 96.4883 202.933 96.5651 202.971 96.6508C203.009 96.7364 203.028 96.8289 203.028 96.9224C203.028 97.016 203.009 97.1085 202.971 97.1941C202.933 97.2797 202.878 97.3566 202.809 97.4198C202.74 97.4831 202.659 97.5313 202.571 97.5614C202.482 97.5916 202.388 97.603 202.295 97.5949H202.27Z" fill="#263238"/>
<path d="M202.27 102.305H180.5C180.411 102.305 180.324 102.287 180.242 102.254C180.16 102.22 180.085 102.17 180.023 102.107C179.96 102.045 179.91 101.97 179.876 101.888C179.843 101.806 179.825 101.719 179.825 101.63C179.825 101.541 179.843 101.454 179.876 101.372C179.91 101.29 179.96 101.215 180.023 101.153C180.085 101.09 180.16 101.04 180.242 101.006C180.324 100.972 180.411 100.955 180.5 100.955H202.295C202.474 100.955 202.646 101.026 202.772 101.153C202.899 101.279 202.97 101.451 202.97 101.63C202.97 101.809 202.899 101.981 202.772 102.107C202.646 102.234 202.474 102.305 202.295 102.305H202.27Z" fill="#263238"/>
<path d="M202.45 105.465H179.955V131.27H202.45V105.465Z" fill="#2E8BDF"/>
<path opacity="0.6" d="M202.45 105.465H179.955V131.27H202.45V105.465Z" fill="white"/>
<path d="M213.665 152.195C213.53 147.115 213.925 138.445 209.465 134.875C205.55 131.74 202.505 135.995 201.41 139.425C198.745 147.75 199.03 179.08 199.72 185.39C199.72 185.39 199.04 179.07 194.075 181.78C189.11 184.49 196.575 198.715 196.575 198.715C196.575 198.715 190.705 194.425 187.995 198.035C185.285 201.645 191.385 205.715 191.385 205.715C191.385 205.715 185.74 204.135 185.74 205.715C185.74 207.295 187.545 208.65 192.74 209.33H220.74C220.74 209.33 225.24 206.83 224.355 204.135C223.47 201.44 218.69 203 218.69 203C218.69 203 225.915 194.195 225.46 190.355C225.005 186.515 215.75 191.03 215.75 191.03C215.75 191.03 222.98 172.74 221.625 164.61C220.555 158.205 215.585 162.61 212.88 165.05C213.516 160.796 213.779 156.495 213.665 152.195Z" fill="#2E8BDF"/>
<path opacity="0.1" d="M213.665 152.195C213.53 147.115 213.925 138.445 209.465 134.875C205.55 131.74 202.505 135.995 201.41 139.425C198.745 147.75 199.03 179.08 199.72 185.39C199.72 185.39 199.04 179.07 194.075 181.78C189.11 184.49 196.575 198.715 196.575 198.715C196.575 198.715 190.705 194.425 187.995 198.035C185.285 201.645 191.385 205.715 191.385 205.715C191.385 205.715 185.74 204.135 185.74 205.715C185.74 207.295 187.545 208.65 192.74 209.33H220.74C220.74 209.33 225.24 206.83 224.355 204.135C223.47 201.44 218.69 203 218.69 203C218.69 203 225.915 194.195 225.46 190.355C225.005 186.515 215.75 191.03 215.75 191.03C215.75 191.03 222.98 172.74 221.625 164.61C220.555 158.205 215.585 162.61 212.88 165.05C213.516 160.796 213.779 156.495 213.665 152.195Z" fill="black"/>
<path d="M204.66 208.725L206.72 147" stroke="#2E8BDF" stroke-width="1.72695" stroke-linecap="round" stroke-linejoin="round"/>
<path d="M205.815 183.135L216.43 173.195" stroke="#2E8BDF" stroke-width="1.72695" stroke-linecap="round" stroke-linejoin="round"/>
<path d="M210.785 178.615L213.04 172.295" stroke="#2E8BDF" stroke-width="1.72695" stroke-linecap="round" stroke-linejoin="round"/>
<path d="M197.01 190.81L204.985 199.315" stroke="#2E8BDF" stroke-width="1.72695" stroke-linecap="round" stroke-linejoin="round"/>
<path d="M218.69 195.78L205.14 202.78" stroke="#2E8BDF" stroke-width="1.72695" stroke-linecap="round" stroke-linejoin="round"/>
<path d="M211.86 199.23L216.43 199.62" stroke="#2E8BDF" stroke-width="1.72695" stroke-linecap="round" stroke-linejoin="round"/>
<path d="M111.795 209.57C111.795 211.43 94.07 212.94 72.21 212.94C50.35 212.94 32.62 211.44 32.62 209.57C32.62 207.7 50.345 206.2 72.21 206.2C94.075 206.2 111.795 207.71 111.795 209.57Z" fill="#263238"/>
<path d="M52.5 147.675C52.5 147.675 55.56 146.125 56.89 147.455C58.22 148.785 57.685 163.015 58.085 167.535C58.3273 170.231 58.8245 172.898 59.57 175.5C59.57 175.5 55.18 174.705 51.855 173C51.855 173 48.93 158.8 52.5 147.675Z" fill="#263238" stroke="#263238" stroke-width="0.75" stroke-linecap="round" stroke-linejoin="round"/>
<path d="M113.425 179.9C113.065 179.9 112.716 179.778 112.434 179.554C112.153 179.33 111.955 179.017 111.873 178.667C111.791 178.317 111.831 177.949 111.984 177.624C112.138 177.298 112.397 177.034 112.72 176.875L127.175 170.375L138.395 157.47C138.668 157.146 139.057 156.944 139.479 156.908C139.9 156.872 140.319 157.005 140.643 157.278C140.966 157.55 141.168 157.94 141.204 158.361C141.24 158.783 141.108 159.201 140.835 159.525L129.4 172.685C129.263 172.853 129.093 172.991 128.9 173.09L114.14 179.735C113.919 179.847 113.673 179.904 113.425 179.9Z" fill="white" stroke="#263238" stroke-width="0.75" stroke-linecap="round" stroke-linejoin="round"/>
<path d="M123.31 174.265L124.895 173.545" stroke="#263238" stroke-width="0.75" stroke-linecap="round" stroke-linejoin="round"/>
<path d="M116 177.59L122.265 174.74" stroke="#263238" stroke-width="0.75" stroke-linecap="round" stroke-linejoin="round"/>
<path d="M137.425 161.685L133.25 166.405" stroke="#263238" stroke-width="0.75" stroke-linecap="round" stroke-linejoin="round"/>
<path d="M132.575 167.08L131.63 168.155" stroke="#263238" stroke-width="0.75" stroke-linecap="round" stroke-linejoin="round"/>
<path d="M115.35 185.633C117.118 178.176 112.506 170.697 105.049 168.929C97.5921 167.161 90.1135 171.773 88.3453 179.23C86.5771 186.687 91.1889 194.166 98.6461 195.934C106.103 197.702 113.582 193.09 115.35 185.633Z" fill="#2E8BDF" stroke="#263238" stroke-width="0.747671" stroke-linecap="round" stroke-linejoin="round"/>
<path d="M67.165 131.07C67.165 131.07 69.165 135.76 69.585 136.675C70.005 137.59 70.405 137.84 70.31 138.13C70.215 138.42 69.195 138.755 69.195 138.755C69.3366 140.198 69.0862 141.653 68.47 142.965C67.47 144.965 65.52 146.01 65.33 147.265C65.2181 148.472 65.2014 149.686 65.28 150.895L62.33 148.475C62.33 148.475 63.15 146.105 62.425 144.365C61.8103 142.941 60.7149 141.778 59.33 141.08C57.6058 139.948 56.3789 138.201 55.9 136.195C55.465 133.87 56.815 131.405 58.605 129.665C60.395 127.925 63.925 128.265 64.315 128.41C64.705 128.555 63.345 127.41 64.555 127.15C65.765 126.89 66.49 128.65 66.555 128.94C66.62 129.23 66.99 127.685 67.38 128.7C67.77 129.715 67.165 131.07 67.165 131.07Z" fill="white"/>
<mask id="mask0_41_10412" style="mask-type:luminance" maskUnits="userSpaceOnUse" x="55" y="127" width="16" height="24">
<path d="M67.165 131.07C67.165 131.07 69.165 135.76 69.585 136.675C70.005 137.59 70.405 137.84 70.31 138.13C70.215 138.42 69.195 138.755 69.195 138.755C69.3366 140.198 69.0862 141.653 68.47 142.965C67.47 144.965 65.52 146.01 65.33 147.265C65.2181 148.472 65.2014 149.686 65.28 150.895L62.33 148.475C62.33 148.475 63.15 146.105 62.425 144.365C61.8103 142.941 60.7149 141.778 59.33 141.08C57.6058 139.948 56.3789 138.201 55.9 136.195C55.465 133.87 56.815 131.405 58.605 129.665C60.395 127.925 63.925 128.265 64.315 128.41C64.705 128.555 63.345 127.41 64.555 127.15C65.765 126.89 66.49 128.65 66.555 128.94C66.62 129.23 66.99 127.685 67.38 128.7C67.77 129.715 67.165 131.07 67.165 131.07Z" fill="white"/>
</mask>
<g mask="url(#mask0_41_10412)">
<g style="mix-blend-mode:multiply" opacity="0.5">
<path d="M63.56 149.5C63.5425 149.165 63.5041 148.831 63.445 148.5C63.25 147.62 64.445 144.88 64.815 141.655C65.185 138.43 62.66 133.925 62.66 133.925L60.81 128.56C59.9884 128.736 59.2278 129.126 58.605 129.69C56.815 131.43 55.465 133.895 55.9 136.22C56.3789 138.226 57.6058 139.973 59.33 141.105C60.7149 141.803 61.8103 142.966 62.425 144.39C63.15 146.13 62.33 148.5 62.33 148.5L63.56 149.5Z" fill="#2E8BDF"/>
</g>
</g>
<path d="M67.165 131.07C67.165 131.07 69.165 135.76 69.585 136.675C70.005 137.59 70.405 137.84 70.31 138.13C70.215 138.42 69.195 138.755 69.195 138.755C69.3366 140.198 69.0862 141.653 68.47 142.965C67.47 144.965 65.52 146.01 65.33 147.265C65.2181 148.472 65.2014 149.686 65.28 150.895L62.33 148.475C62.33 148.475 63.15 146.105 62.425 144.365C61.8103 142.941 60.7149 141.778 59.33 141.08C57.6058 139.948 56.3789 138.201 55.9 136.195C55.465 133.87 56.815 131.405 58.605 129.665C60.395 127.925 63.925 128.265 64.315 128.41C64.705 128.555 63.345 127.41 64.555 127.15C65.765 126.89 66.49 128.65 66.555 128.94C66.62 129.23 66.99 127.685 67.38 128.7C67.77 129.715 67.165 131.07 67.165 131.07Z" stroke="#263238" stroke-width="0.75" stroke-linecap="round" stroke-linejoin="round"/>
<path d="M67.355 133.565C67.355 133.565 66.48 133.325 66.19 134.065C66.0989 134.235 66.0475 134.423 66.0397 134.615C66.0319 134.807 66.0679 134.999 66.145 135.175" stroke="#263238" stroke-width="0.75" stroke-linecap="round" stroke-linejoin="round"/>
<path d="M68.375 140.935C68.375 140.935 67.505 141.37 66.97 140.79" stroke="#263238" stroke-width="0.75" stroke-linecap="round" stroke-linejoin="round"/>
<path d="M66.67 136.88L62.64 138.625" stroke="#263238" stroke-width="0.75" stroke-linecap="round" stroke-linejoin="round"/>
<path d="M60.955 140.745C60.4109 141.546 60.1569 142.51 60.235 143.475C60.355 145.125 60.315 147.375 59.47 147.175C58.625 146.975 59.87 144.44 59.87 143.395C59.8201 142.599 59.6375 141.816 59.33 141.08" stroke="#263238" stroke-width="0.75" stroke-linecap="round" stroke-linejoin="round"/>
<path d="M69.61 135.61L68.66 136.02" stroke="#263238" stroke-width="0.75" stroke-linecap="round" stroke-linejoin="round"/>
<path d="M68.055 136.55C68.18 136.975 68.18 137.35 68.055 137.385C67.93 137.42 67.73 137.105 67.605 136.68C67.48 136.255 67.485 135.88 67.605 135.84C67.725 135.8 67.935 136.12 68.055 136.55Z" fill="#263238"/>
<path d="M68.56 136.55C68.895 137.55 68.81 138.475 68.37 138.625C67.93 138.775 67.3 138.08 66.965 137.085C66.63 136.09 66.715 135.155 67.155 135.005C67.595 134.855 68.225 135.55 68.56 136.55Z" stroke="#263238" stroke-width="0.75" stroke-linecap="round" stroke-linejoin="round"/>
<path d="M61.88 140.425C61.88 140.425 61.085 139.465 61.8 139.545C62.0245 139.591 62.2324 139.698 62.4014 139.853C62.5704 140.008 62.6943 140.205 62.76 140.425" stroke="#263238" stroke-width="0.5" stroke-linecap="round" stroke-linejoin="round"/>
<path d="M84.235 156.84L81.43 158.825L81.865 161.145L85.06 159.89L84.235 156.84Z" fill="white" stroke="#263238" stroke-width="0.75" stroke-linecap="round" stroke-linejoin="round"/>
<path d="M81.72 158.245L82.98 162.935C82.98 162.935 74.5 166.805 72.825 168C71.15 169.195 69.825 168.87 69.825 168.87L68.715 163.45C68.715 163.45 69.92 164.03 72.485 162.92C75.05 161.81 81.72 158.245 81.72 158.245Z" fill="white" stroke="#263238" stroke-width="0.75" stroke-linecap="round" stroke-linejoin="round"/>
<path d="M85.885 170.45C85.7145 170.432 85.5561 170.354 85.4387 170.229C85.3212 170.104 85.2525 169.941 85.245 169.77L84.125 151.215C84.1137 151.117 84.1226 151.017 84.1513 150.923C84.18 150.828 84.2279 150.741 84.2919 150.666C84.356 150.59 84.4348 150.529 84.5235 150.486C84.6122 150.442 84.709 150.417 84.8077 150.413C84.9064 150.408 85.0049 150.424 85.0972 150.46C85.1895 150.495 85.2735 150.549 85.3441 150.618C85.4147 150.687 85.4703 150.77 85.5074 150.862C85.5446 150.953 85.5625 151.051 85.56 151.15L86.68 169.7C86.6847 169.795 86.6707 169.889 86.6388 169.978C86.6069 170.068 86.5578 170.15 86.4941 170.22C86.4305 170.29 86.3537 170.347 86.268 170.387C86.1824 170.427 86.0896 170.451 85.995 170.455L85.885 170.45Z" fill="#263238" stroke="#263238" stroke-width="0.75" stroke-linecap="round" stroke-linejoin="round"/>
<path d="M83.75 156.4C83.5719 156.392 83.403 156.319 83.2758 156.194C83.1487 156.069 83.0725 155.901 83.0619 155.723C83.0514 155.545 83.1072 155.37 83.2186 155.231C83.33 155.092 83.4891 154.999 83.665 154.97L86.47 154.63C86.5673 154.61 86.6676 154.611 86.7646 154.632C86.8616 154.653 86.9532 154.694 87.0337 154.752C87.1142 154.81 87.1818 154.884 87.2324 154.969C87.2829 155.055 87.3152 155.149 87.3273 155.248C87.3394 155.346 87.331 155.446 87.3027 155.541C87.2743 155.637 87.2266 155.725 87.1625 155.801C87.0984 155.876 87.0194 155.938 86.9304 155.982C86.8413 156.026 86.7442 156.051 86.645 156.055L83.84 156.395L83.75 156.4Z" fill="white" stroke="#263238" stroke-width="0.75" stroke-linecap="round" stroke-linejoin="round"/>
<path d="M83.895 157.85C83.7169 157.842 83.548 157.769 83.4209 157.644C83.2938 157.519 83.2175 157.351 83.207 157.173C83.1964 156.995 83.2522 156.82 83.3636 156.681C83.475 156.542 83.6341 156.449 83.81 156.42L86.615 156.08C86.8044 156.059 86.9946 156.113 87.1443 156.231C87.294 156.349 87.3913 156.521 87.415 156.71C87.4262 156.803 87.4189 156.898 87.3935 156.988C87.3682 157.079 87.3253 157.163 87.2672 157.237C87.2092 157.311 87.1372 157.373 87.0553 157.419C86.9734 157.464 86.8833 157.494 86.79 157.505L83.985 157.845L83.895 157.85Z" fill="white" stroke="#263238" stroke-width="0.75" stroke-linecap="round" stroke-linejoin="round"/>
<path d="M84.05 159.17C83.8744 159.169 83.7057 159.102 83.5783 158.981C83.4508 158.86 83.3742 158.695 83.364 158.52C83.3538 158.345 83.4108 158.172 83.5234 158.038C83.636 157.903 83.7957 157.816 83.97 157.795L86.655 157.47C86.7455 157.458 86.8375 157.464 86.9257 157.488C87.0138 157.512 87.0964 157.553 87.1685 157.609C87.2407 157.665 87.301 157.734 87.346 157.814C87.391 157.893 87.4199 157.981 87.4308 158.071C87.4417 158.162 87.4345 158.254 87.4096 158.342C87.3848 158.43 87.3427 158.512 87.2859 158.583C87.2291 158.655 87.1586 158.714 87.0787 158.758C86.9987 158.802 86.9108 158.83 86.82 158.84L84.135 159.165L84.05 159.17Z" fill="white" stroke="#263238" stroke-width="0.75" stroke-linecap="round" stroke-linejoin="round"/>
<path d="M84.5 160.435C84.3617 160.421 84.2335 160.356 84.141 160.252C84.0484 160.149 83.9981 160.014 84 159.875C83.9721 159.725 83.9999 159.57 84.0782 159.44C84.1564 159.309 84.2798 159.211 84.425 159.165L86.325 158.86C86.595 158.825 86.825 159.07 86.865 159.42C86.8952 159.57 86.8684 159.726 86.7898 159.857C86.7112 159.988 86.5865 160.086 86.44 160.13L84.545 160.43L84.5 160.435Z" fill="white" stroke="#263238" stroke-width="0.75" stroke-linecap="round" stroke-linejoin="round"/>
<path d="M83.47 158.15C83.4617 158.286 83.4037 158.415 83.307 158.512C83.2103 158.609 83.0815 158.667 82.945 158.675C82.797 158.715 82.6394 158.7 82.502 158.632C82.3646 158.564 82.2571 158.447 82.2 158.305L81.76 156.435C81.7 156.17 81.925 155.91 82.26 155.85C82.4072 155.812 82.5632 155.828 82.6992 155.896C82.8352 155.964 82.9421 156.079 83 156.22L83.445 158.095C83.445 158.095 83.465 158.13 83.47 158.15Z" fill="white" stroke="#263238" stroke-width="0.75" stroke-linecap="round" stroke-linejoin="round"/>
<path d="M61.265 147.025C61.265 147.025 64.7 149.105 66.295 151.715C67.89 154.325 69.245 158.215 70.02 161.63C70.795 165.045 71.42 173.96 71.905 175.8C72.1397 176.776 72.4976 177.719 72.97 178.605C70.1713 179.644 67.1993 180.136 64.215 180.055C59.475 179.86 58.75 178.7 58.75 178.7C58.75 178.7 57.155 168.16 57.3 159.79C57.445 151.42 61.265 147.025 61.265 147.025Z" fill="white"/>
<mask id="mask1_41_10412" style="mask-type:luminance" maskUnits="userSpaceOnUse" x="57" y="147" width="16" height="34">
<path d="M61.265 147.025C61.265 147.025 64.7 149.105 66.295 151.715C67.89 154.325 69.245 158.215 70.02 161.63C70.795 165.045 71.42 173.96 71.905 175.8C72.1397 176.776 72.4976 177.719 72.97 178.605C70.1713 179.644 67.1993 180.136 64.215 180.055C59.475 179.86 58.75 178.7 58.75 178.7C58.75 178.7 57.155 168.16 57.3 159.79C57.445 151.42 61.265 147.025 61.265 147.025Z" fill="white"/>
</mask>
<g mask="url(#mask1_41_10412)">
<g style="mix-blend-mode:multiply" opacity="0.5">
<path d="M59.24 156.5C59.24 156.5 58.74 157.285 59.14 155.23C59.4637 153.793 59.9907 152.409 60.705 151.12L63.05 153.76L64.52 153.86L64.13 154.545L66.965 156.305L65.62 154.72L65.715 152.3L63.445 153C63.445 153 61.975 150.36 61.585 149.5C61.325 148.91 62.195 148.41 62.805 148.145C62.3107 147.76 61.7967 147.401 61.265 147.07C61.265 147.07 57.445 151.47 57.3 159.835C57.185 166.47 58.165 174.465 58.575 177.495L66.075 177.08L59.24 156.5Z" fill="#2E8BDF"/>
</g>
</g>
<path d="M61.265 147.025C61.265 147.025 64.7 149.105 66.295 151.715C67.89 154.325 69.245 158.215 70.02 161.63C70.795 165.045 71.42 173.96 71.905 175.8C72.1397 176.776 72.4976 177.719 72.97 178.605C70.1713 179.644 67.1993 180.136 64.215 180.055C59.475 179.86 58.75 178.7 58.75 178.7C58.75 178.7 57.155 168.16 57.3 159.79C57.445 151.42 61.265 147.025 61.265 147.025Z" stroke="#263238" stroke-width="0.75" stroke-linecap="round" stroke-linejoin="round"/>
<path d="M60.25 148.72L63.83 153.02L65.715 152.295L65.62 154.715L68.47 158.15" stroke="#263238" stroke-width="0.75" stroke-linecap="round" stroke-linejoin="round"/>
<path d="M58.05 157.835C58.05 157.835 58.45 161.835 59.645 162.785" stroke="#263238" stroke-width="0.5" stroke-linecap="round" stroke-linejoin="round"/>
<path d="M58.29 162.15C58.29 162.15 58.79 163.65 60.045 164.15" stroke="#263238" stroke-width="0.5" stroke-linecap="round" stroke-linejoin="round"/>
<path d="M68.67 159.99L66.595 160.79L66.915 161.67L68.83 160.95" stroke="#263238" stroke-width="0.5" stroke-linecap="round" stroke-linejoin="round"/>
<path d="M82.665 175.055C82.4934 175.055 82.3275 174.993 82.1973 174.881C82.0672 174.769 81.9812 174.615 81.955 174.445L79.365 157.625C79.3509 157.531 79.3553 157.436 79.3781 157.344C79.4009 157.252 79.4415 157.166 79.4977 157.09C79.5539 157.014 79.6245 156.949 79.7055 156.9C79.7866 156.852 79.8764 156.819 79.97 156.805C80.0636 156.791 80.159 156.795 80.2508 156.818C80.3427 156.841 80.4292 156.882 80.5053 156.938C80.5814 156.994 80.6458 157.065 80.6946 157.146C80.7435 157.227 80.7759 157.317 80.79 157.41L83.38 174.23C83.4073 174.419 83.3591 174.611 83.2459 174.764C83.1326 174.918 82.9634 175.02 82.775 175.05L82.665 175.055Z" fill="#263238" stroke="#263238" stroke-width="0.75" stroke-linecap="round" stroke-linejoin="round"/>
<path d="M67.165 131.07C67.165 131.07 67.745 129.715 67.36 128.7C66.975 127.685 66.585 129.23 66.535 128.94C66.485 128.65 65.765 126.91 64.535 127.15C63.305 127.39 64.68 128.555 64.295 128.41C63.91 128.265 60.375 127.91 58.585 129.665C56.795 131.42 55.445 133.87 55.88 136.195C56.3589 138.201 57.5858 139.948 59.31 141.08C60.2151 141.544 61.0044 142.205 61.62 143.015C62.1397 142.598 62.614 142.127 63.035 141.61C62.7837 141.69 62.517 141.71 62.2565 141.669C61.9959 141.627 61.7488 141.525 61.535 141.37C60.76 140.835 60.375 139.29 61.345 138.515C62.315 137.74 63.25 139.5 63.25 139.5C64.25 140.035 63.875 138.63 63.49 138C63.105 137.37 63.635 136.69 63.78 135.775C63.925 134.86 62.67 134.515 62.815 133.595C62.96 132.675 67.165 131.07 67.165 131.07Z" fill="#263238" stroke="#263238" stroke-width="0.75" stroke-linecap="round" stroke-linejoin="round"/>
<path d="M64.835 131.72C64.835 131.72 63.08 130.84 61.96 132.22C60.84 133.6 61.085 135.895 60.205 137.25C59.9992 137.623 59.713 137.946 59.3671 138.195C59.0212 138.444 58.6243 138.613 58.205 138.69" stroke="white" stroke-width="0.5" stroke-linecap="round" stroke-linejoin="round"/>
<path d="M57.17 136.275C57.6986 136.332 58.2284 136.179 58.6461 135.85C59.0638 135.521 59.3362 135.042 59.405 134.515C59.805 132.515 62.04 129.645 64.28 129.565C66.52 129.485 66.355 131.065 66.355 131.065" stroke="white" stroke-width="0.5" stroke-linecap="round" stroke-linejoin="round"/>
<path d="M76.5 164.095L77.9 163.175C77.9 163.175 79.11 160.95 79.205 160.805C79.3 160.66 82.255 159.21 82.495 159.405C82.631 159.524 82.7369 159.673 82.8038 159.841C82.8708 160.009 82.8969 160.19 82.88 160.37C82.785 160.615 82.445 160.87 82.445 161.1C82.445 161.33 82.835 163.175 82.835 163.66C82.835 164.145 80.835 164.965 80.03 165.21C79.225 165.455 78.145 165.45 77.9 165.645L77.225 166.175L76.5 164.095Z" fill="white" stroke="#263238" stroke-width="0.75" stroke-linecap="round" stroke-linejoin="round"/>
<path d="M60.25 154.33C60.25 154.33 58.995 154.665 59.43 158.195C59.865 161.725 63.395 173.62 64.65 175.075C65.905 176.53 78.15 168.4 78.15 168.4L76.65 163.755C76.65 163.755 68.38 166.995 67.705 167.14C67.03 167.285 65.09 156.745 64.415 155.44" fill="white"/>
<mask id="mask2_41_10412" style="mask-type:luminance" maskUnits="userSpaceOnUse" x="59" y="154" width="20" height="22">
<path d="M60.25 154.33C60.25 154.33 58.995 154.665 59.43 158.195C59.865 161.725 63.395 173.62 64.65 175.075C65.905 176.53 78.15 168.4 78.15 168.4L76.65 163.755C76.65 163.755 68.38 166.995 67.705 167.14C67.03 167.285 65.09 156.745 64.415 155.44" fill="white"/>
</mask>
<g mask="url(#mask2_41_10412)">
<g style="mix-blend-mode:multiply" opacity="0.5">
<path d="M77.925 167.725C75.38 168.53 69.49 170.365 68.725 170.285C67.725 170.19 67.455 169.6 66.865 168.82C66.275 168.04 65.4 171.165 64.615 171.46C63.83 171.755 64.42 167.96 64.715 167.155C65.01 166.35 64.03 167.55 64.03 167.55C64.03 167.55 62.075 163.55 61.095 160.8C60.4738 159.005 59.9841 157.167 59.63 155.3L59.41 155.84C59.2995 156.614 59.2995 157.401 59.41 158.175C59.845 161.705 63.375 173.6 64.63 175.055C65.885 176.51 78.13 168.38 78.13 168.38L77.925 167.725Z" fill="#2E8BDF"/>
</g>
</g>
<path d="M60.25 154.33C60.25 154.33 58.995 154.665 59.43 158.195C59.865 161.725 63.395 173.62 64.65 175.075C65.905 176.53 78.15 168.4 78.15 168.4L76.65 163.755C76.65 163.755 68.38 166.995 67.705 167.14C67.03 167.285 65.09 156.745 64.415 155.44" stroke="#263238" stroke-width="0.75" stroke-linecap="round" stroke-linejoin="round"/>
<path d="M67.7 167.14C67.2071 167.459 66.784 167.875 66.4566 168.362C66.1291 168.849 65.904 169.398 65.795 169.975" stroke="#263238" stroke-width="0.5" stroke-linecap="round" stroke-linejoin="round"/>
<path d="M65.875 168.215C65.5391 168.55 65.274 168.95 65.0953 169.389C64.9167 169.829 64.8282 170.3 64.835 170.775" stroke="#263238" stroke-width="0.5" stroke-linecap="round" stroke-linejoin="round"/>
<path d="M53.41 172.145C53.41 172.145 52.08 167.71 52.255 158.49C52.43 149.27 52.965 148.385 52.52 147.675C52.075 146.965 44.02 151.71 38.02 158.625C34.2 163.045 29.32 169.59 29 179.9C28.735 188.145 32.655 194.81 35.115 196.655C39.37 199.845 45.18 199.625 45.8 199.625H105.18C105.18 199.625 108.99 198.295 109.875 194.84C110.76 191.385 113.775 181.54 107.485 169.75C103.355 162.015 95.96 153.705 94.715 154.325C93.47 154.945 88.82 163.825 82.485 169.395C76.5 174.66 65.11 178.525 53.41 172.145Z" fill="#2E8BDF" stroke="#263238" stroke-width="0.75" stroke-linecap="round" stroke-linejoin="round"/>
<path d="M107.5 169.75C106.615 168.1 105.585 166.425 104.5 164.815C101.03 166.01 92.33 169.58 87.5 176.71C83.355 182.83 86.11 192.54 94.75 199.625H105.185C105.185 199.625 108.995 198.295 109.88 194.835C110.765 191.375 113.775 181.54 107.5 169.75Z" fill="white" stroke="#263238" stroke-width="0.75" stroke-linecap="round" stroke-linejoin="round"/>
<path d="M109.405 188.405C109.312 189.272 109.173 190.16 108.99 191.07" stroke="#263238" stroke-width="0.75" stroke-linecap="round" stroke-linejoin="round"/>
<path d="M106.43 171.255C106.43 171.255 110.025 177.45 109.565 186.485" stroke="#263238" stroke-width="0.75" stroke-linecap="round" stroke-linejoin="round"/>
<path d="M52 198.365V189.5C47.375 188 44.39 186.22 41.605 184.55C37.605 182.155 34.805 175.7 36.685 171.52C38.41 167.66 43.185 165.935 45.725 167.66C48.2039 169.289 50.7638 170.791 53.395 172.16C53.395 172.16 52.065 167.725 52.24 158.505C52.415 149.285 52.95 148.4 52.505 147.69C52.06 146.98 44.005 151.725 38.005 158.64C34.2 163.045 29.32 169.59 29 179.9C28.735 188.145 32.655 194.81 35.115 196.655C39.37 199.845 45.18 199.625 45.8 199.625H52C52 199.17 52 198.745 52 198.365Z" fill="white" stroke="#263238" stroke-width="0.75" stroke-linecap="round" stroke-linejoin="round"/>
<path d="M30.885 181.635C30.9303 182.727 31.0472 183.814 31.235 184.89" stroke="#263238" stroke-width="0.75" stroke-linecap="round" stroke-linejoin="round"/>
<path d="M45.18 154.37C43.74 155.66 41.59 157.175 40.255 158.72C36.43 163.14 31.205 169.455 30.875 179.765" stroke="#263238" stroke-width="0.75" stroke-linecap="round" stroke-linejoin="round"/>
<path d="M65.82 198.56C65.82 203.435 58.32 203.88 49.02 203.88C39.72 203.88 32.22 203.7 32.22 198.56C32.22 191.46 39.72 184.56 49.02 184.56C58.32 184.56 65.82 191.46 65.82 198.56Z" fill="#2E8BDF" stroke="#263238" stroke-width="0.75" stroke-linecap="round" stroke-linejoin="round"/>
<path d="M49 184.555C40.415 184.555 33.345 190.465 32.33 196.97C33.33 201.065 40.415 201.22 49 201.22C57.585 201.22 64.635 200.84 65.665 196.94C64.655 190.445 57.59 184.555 49 184.555Z" fill="#263238" stroke="#263238" stroke-width="0.75" stroke-linecap="round" stroke-linejoin="round"/>
<path d="M109.255 199.08C109.255 203.495 102.445 203.9 94.045 203.9C85.645 203.9 78.83 203.74 78.83 199.08C78.83 192.655 85.64 186.395 94.045 186.395C102.45 186.395 109.255 192.655 109.255 199.08Z" fill="#2E8BDF" stroke="#263238" stroke-width="0.75" stroke-linecap="round" stroke-linejoin="round"/>
<path d="M94.045 186.395C86.27 186.395 79.865 191.75 78.95 197.645C79.865 201.35 86.27 201.49 94.045 201.49C101.82 201.49 108.2 201.145 109.135 197.615C108.2 191.735 101.805 186.395 94.045 186.395Z" fill="#263238" stroke="#263238" stroke-width="0.75" stroke-linecap="round" stroke-linejoin="round"/>
<path d="M153.27 146.5C152.676 146.278 152.194 145.828 151.93 145.251C151.667 144.673 151.643 144.015 151.865 143.42L158.615 125.375C158.725 125.079 158.892 124.809 159.107 124.578C159.321 124.347 159.58 124.16 159.866 124.029C160.153 123.898 160.463 123.825 160.778 123.813C161.093 123.802 161.407 123.852 161.703 123.962C161.998 124.072 162.269 124.24 162.5 124.454C162.731 124.669 162.917 124.927 163.048 125.214C163.179 125.5 163.253 125.81 163.264 126.125C163.276 126.44 163.225 126.754 163.115 127.05L156.365 145.095C156.255 145.391 156.087 145.663 155.872 145.894C155.657 146.125 155.398 146.311 155.11 146.442C154.822 146.572 154.512 146.645 154.196 146.655C153.88 146.665 153.565 146.612 153.27 146.5Z" fill="white" stroke="#263238" stroke-width="0.75" stroke-linecap="round" stroke-linejoin="round"/>
<path d="M161.04 128.625L157.25 138.585" stroke="#263238" stroke-width="0.75" stroke-linecap="round" stroke-linejoin="round"/>
<path d="M143 174C142.476 173.805 141.996 173.508 141.587 173.127C141.178 172.747 140.848 172.289 140.616 171.78C140.384 171.272 140.254 170.723 140.234 170.164C140.214 169.606 140.305 169.049 140.5 168.525L150.135 142.76C150.533 141.702 151.334 140.846 152.364 140.38C153.393 139.913 154.565 139.875 155.622 140.273C156.68 140.67 157.536 141.472 158.003 142.501C158.469 143.53 158.508 144.702 158.11 145.76L148.455 171.5C148.061 172.553 147.265 173.407 146.243 173.875C145.221 174.344 144.055 174.389 143 174Z" fill="#263238" stroke="#263238" stroke-width="0.75" stroke-linecap="round" stroke-linejoin="round"/>
<path d="M178.765 79.09C173.961 77.2937 168.733 76.9622 163.741 78.1373C158.749 79.3125 154.218 81.9415 150.72 85.692C147.222 89.4425 144.915 94.146 144.09 99.2077C143.265 104.269 143.96 109.462 146.087 114.129C148.213 118.796 151.676 122.727 156.037 125.426C160.397 128.125 165.461 129.47 170.586 129.292C175.711 129.113 180.669 127.419 184.831 124.423C188.993 121.427 192.174 117.264 193.97 112.46C196.377 106.018 196.128 98.8845 193.277 92.6268C190.425 86.369 185.206 81.4999 178.765 79.09ZM162.17 123.46C158.199 121.974 154.757 119.344 152.28 115.902C149.804 112.46 148.403 108.361 148.256 104.123C148.109 99.8856 149.222 95.6994 151.454 92.0941C153.686 88.4888 156.937 85.6263 160.796 83.8685C164.655 82.1108 168.948 81.5367 173.133 82.219C177.318 82.9012 181.207 84.8091 184.308 87.7014C187.408 90.5937 189.582 94.3404 190.553 98.468C191.525 102.595 191.25 106.918 189.765 110.89C187.772 116.216 183.745 120.532 178.57 122.889C173.395 125.246 167.496 125.452 162.17 123.46Z" fill="#263238" stroke="#263238" stroke-width="0.75" stroke-linecap="round" stroke-linejoin="round"/>
<path d="M152.295 95.5C153.335 93.206 154.82 91.1411 156.664 89.4246C158.507 87.7082 160.673 86.3743 163.035 85.5" stroke="#263238" stroke-width="0.75" stroke-linecap="round" stroke-linejoin="round"/>
<path d="M150.58 103.44C150.575 101.495 150.868 99.5608 151.45 97.705" stroke="#263238" stroke-width="0.75" stroke-linecap="round" stroke-linejoin="round"/>
<path d="M145.1 108.73C143.809 102.783 144.717 96.57 147.656 91.2413C150.595 85.9126 155.365 81.8297 161.084 79.7488C166.802 77.6679 173.081 77.7301 178.757 79.9238C184.434 82.1176 189.122 86.2942 191.955 91.68" stroke="white" stroke-miterlimit="10"/>
<path d="M194.665 100.38C195.398 106.372 193.952 112.427 190.592 117.441C187.232 122.456 182.181 126.095 176.36 127.695C170.54 129.295 164.338 128.749 158.887 126.157C153.436 123.565 149.098 119.099 146.665 113.575" stroke="white" stroke-miterlimit="10"/>
<path d="M192.965 93.855C193.618 95.4458 194.105 97.0995 194.42 98.79" stroke="white" stroke-miterlimit="10"/>
<path d="M69 191.775C72.9848 191.775 76.215 188.545 76.215 184.56C76.215 180.575 72.9848 177.345 69 177.345C65.0153 177.345 61.785 180.575 61.785 184.56C61.785 188.545 65.0153 191.775 69 191.775Z" fill="#263238"/>
<path d="M69 190.65C72.3634 190.65 75.09 187.923 75.09 184.56C75.09 181.197 72.3634 178.47 69 178.47C65.6366 178.47 62.91 181.197 62.91 184.56C62.91 187.923 65.6366 190.65 69 190.65Z" fill="white" stroke="#263238" stroke-width="0.75" stroke-linecap="round" stroke-linejoin="round"/>
<path d="M67.15 186.36C67.0972 186.306 67.0676 186.233 67.0676 186.158C67.0676 186.082 67.0972 186.009 67.15 185.955L68.8 184.305C68.8542 184.252 68.9269 184.223 69.0025 184.223C69.0782 184.223 69.1509 184.252 69.205 184.305C69.2326 184.332 69.2544 184.363 69.2694 184.399C69.2843 184.434 69.292 184.472 69.292 184.51C69.292 184.548 69.2843 184.586 69.2694 184.621C69.2544 184.657 69.2326 184.688 69.205 184.715L67.56 186.36C67.5335 186.388 67.5016 186.409 67.4664 186.424C67.4312 186.439 67.3933 186.447 67.355 186.447C67.3168 186.447 67.2789 186.439 67.2437 186.424C67.2085 186.409 67.1766 186.388 67.15 186.36Z" fill="#263238"/>
<path d="M64.64 188.87C64.5908 188.823 64.5517 188.767 64.5249 188.705C64.4982 188.642 64.4844 188.575 64.4844 188.508C64.4844 188.44 64.4982 188.373 64.5249 188.31C64.5517 188.248 64.5908 188.192 64.64 188.145L66.99 185.795C67.0368 185.745 67.0933 185.705 67.1561 185.678C67.2189 185.651 67.2866 185.637 67.355 185.637C67.4234 185.637 67.4911 185.651 67.5539 185.678C67.6167 185.705 67.6732 185.745 67.72 185.795C67.7692 185.842 67.8083 185.898 67.8351 185.96C67.8618 186.023 67.8756 186.09 67.8756 186.158C67.8756 186.225 67.8618 186.292 67.8351 186.355C67.8083 186.417 67.7692 186.473 67.72 186.52L65.37 188.87C65.3232 188.92 65.2667 188.96 65.2039 188.987C65.1411 189.014 65.0734 189.028 65.005 189.028C64.9366 189.028 64.8689 189.014 64.8061 188.987C64.7433 188.96 64.6868 188.92 64.64 188.87Z" fill="#263238"/>
<path d="M73.33 184.66C73.7689 184.222 74.068 183.663 74.1894 183.055C74.3108 182.447 74.249 181.816 74.0118 181.243C73.7747 180.67 73.3729 180.18 72.8572 179.835C72.3416 179.49 71.7352 179.306 71.115 179.306C70.4947 179.306 69.8884 179.49 69.3727 179.835C68.8571 180.18 68.4553 180.67 68.2181 181.243C67.981 181.816 67.9192 182.447 68.0406 183.055C68.162 183.663 68.461 184.222 68.9 184.66C69.4878 185.247 70.2844 185.576 71.115 185.576C71.9456 185.576 72.7422 185.247 73.33 184.66Z" fill="#263238"/>
<path d="M72.73 184.055C73.0481 183.736 73.2645 183.33 73.3518 182.888C73.4391 182.445 73.3935 181.987 73.2207 181.571C73.0479 181.155 72.7557 180.8 72.3809 180.549C72.0061 180.299 71.5656 180.166 71.115 180.166C70.6644 180.166 70.2239 180.299 69.8491 180.549C69.4744 180.8 69.1821 181.155 69.0093 181.571C68.8365 181.987 68.7909 182.445 68.8783 182.888C68.9656 183.33 69.1819 183.736 69.5 184.055C69.7118 184.268 69.9635 184.436 70.2407 184.551C70.5178 184.666 70.8149 184.726 71.115 184.726C71.4151 184.726 71.7122 184.666 71.9894 184.551C72.2665 184.436 72.5182 184.268 72.73 184.055Z" fill="white"/>
<path d="M158.5 158.83C158.5 159.465 158.248 160.074 157.799 160.524C157.349 160.973 156.74 161.225 156.105 161.225H139.22C138.897 161.24 138.574 161.189 138.27 161.075C137.967 160.962 137.69 160.788 137.456 160.564C137.222 160.341 137.036 160.072 136.909 159.774C136.781 159.477 136.716 159.156 136.716 158.833C136.716 158.509 136.781 158.188 136.909 157.891C137.036 157.593 137.222 157.324 137.456 157.101C137.69 156.877 137.967 156.703 138.27 156.59C138.574 156.476 138.897 156.425 139.22 156.44H156.105C156.739 156.44 157.348 156.692 157.797 157.14C158.246 157.588 158.499 158.196 158.5 158.83Z" fill="#2E8BDF" stroke="#263238" stroke-width="0.75" stroke-linecap="round" stroke-linejoin="round"/>
<path d="M148.395 160.485C149.13 160.485 149.725 159.889 149.725 159.155C149.725 158.42 149.13 157.825 148.395 157.825C147.661 157.825 147.065 158.42 147.065 159.155C147.065 159.889 147.661 160.485 148.395 160.485Z" fill="white" stroke="#263238" stroke-width="0.75" stroke-linecap="round" stroke-linejoin="round"/>
<path d="M128.18 174.765C129.969 174.765 131.42 173.314 131.42 171.525C131.42 169.736 129.969 168.285 128.18 168.285C126.391 168.285 124.94 169.736 124.94 171.525C124.94 173.314 126.391 174.765 128.18 174.765Z" fill="#2E8BDF" stroke="#263238" stroke-width="0.75" stroke-linecap="round" stroke-linejoin="round"/>
<path d="M129.395 171.525C129.396 171.285 129.326 171.049 129.193 170.849C129.06 170.648 128.87 170.492 128.648 170.399C128.427 170.306 128.182 170.281 127.946 170.328C127.71 170.374 127.493 170.489 127.323 170.659C127.152 170.829 127.036 171.045 126.989 171.281C126.941 171.517 126.965 171.762 127.057 171.984C127.149 172.206 127.305 172.396 127.504 172.53C127.704 172.664 127.939 172.735 128.18 172.735C128.501 172.735 128.81 172.608 129.037 172.381C129.265 172.154 129.394 171.846 129.395 171.525Z" fill="white" stroke="#263238" stroke-width="0.75" stroke-linecap="round" stroke-linejoin="round"/>
<path d="M139.22 162.13C141.009 162.13 142.46 160.679 142.46 158.89C142.46 157.101 141.009 155.65 139.22 155.65C137.431 155.65 135.98 157.101 135.98 158.89C135.98 160.679 137.431 162.13 139.22 162.13Z" fill="#2E8BDF" stroke="#263238" stroke-width="0.75" stroke-linecap="round" stroke-linejoin="round"/>
<path d="M139.22 160.14C139.91 160.14 140.47 159.58 140.47 158.89C140.47 158.2 139.91 157.64 139.22 157.64C138.53 157.64 137.97 158.2 137.97 158.89C137.97 159.58 138.53 160.14 139.22 160.14Z" fill="white" stroke="#263238" stroke-width="0.75" stroke-linecap="round" stroke-linejoin="round"/>
<g clip-path="url(#clip0_41_10412)">
<path d="M66.3842 66.3355C66.3847 66.0295 66.3166 65.7267 66.184 65.4457C66.0514 65.1646 65.8571 64.9112 65.6131 64.701C65.369 64.4908 65.0803 64.3283 64.7648 64.2235C64.4493 64.1187 64.1136 64.0737 63.7783 64.0914C62.4425 64.1562 61.4407 65.2508 61.4407 66.4726V68.5646C61.4389 68.8603 61.5013 69.1535 61.6243 69.4272C61.7473 69.7009 61.9285 69.9497 62.1574 70.1594C62.3863 70.3691 62.6585 70.5356 62.9583 70.6491C63.2581 70.7627 63.5796 70.8211 63.9042 70.8211C64.5576 70.8211 65.1842 70.5847 65.6462 70.1638C66.1082 69.743 66.3677 69.1722 66.3677 68.577H63.9207" stroke="#0B0B0B" stroke-width="1.2" stroke-linecap="round" stroke-linejoin="round"/>
</g>
<path d="M71.6296 64.4617C71.3146 64.4636 71.0131 64.642 70.791 64.9575C70.5689 65.2731 70.4445 65.7001 70.4449 66.145C70.4445 66.59 70.5689 67.017 70.791 67.3326C71.0131 67.6481 71.3146 67.8264 71.6296 67.8284H72.0339" stroke="#090808" stroke-width="1.2" stroke-linecap="round" stroke-linejoin="round"/>
<path d="M72.0339 67.8285H72.4382C72.7532 67.8305 73.0548 68.0088 73.2769 68.3243C73.499 68.6399 73.6234 69.0669 73.6229 69.5119C73.6232 69.7326 73.5926 69.9512 73.533 70.1553C73.4734 70.3593 73.386 70.5448 73.2756 70.7011C73.1653 70.8575 73.0342 70.9815 72.89 71.0663C72.7457 71.1511 72.591 71.1949 72.4347 71.1952" stroke="#090808" stroke-width="1.2" stroke-linecap="round" stroke-linejoin="round"/>
<path d="M73.5135 65.0303C73.1851 64.6412 72.8302 64.4617 72.0339 64.4617H71.6296" stroke="#090808" stroke-width="1.2" stroke-linecap="round" stroke-linejoin="round"/>
<path d="M70.5544 70.6266C70.8828 71.0156 71.2376 71.1952 72.0339 71.1952H72.4382" stroke="#090808" stroke-width="1.2" stroke-linecap="round" stroke-linejoin="round"/>
<path d="M77.9131 64.4617H82.3976" stroke="black" stroke-width="1.2" stroke-linecap="round" stroke-linejoin="round"/>
<path d="M80.1554 71.1951V64.4617" stroke="black" stroke-width="1.2" stroke-linecap="round" stroke-linejoin="round"/>
<defs>
<clipPath id="clip0_41_10412">
<rect width="7.76836" height="8.22979" fill="white" transform="translate(60.0283 63.3395)"/>
</clipPath>
</defs>
</svg>
